<?xml version="1.0" encoding="iso-8859-1"?>
<!-- Generator: Adobe Illustrator 19.0.0, SVG Export Plug-In . SVG Version: 6.00 Build 0)  -->
<svg version="1.1" id="Layer_1" xmlns="http://www.w3.org/2000/svg" xmlns:xlink="http://www.w3.org/1999/xlink" x="0px" y="0px"
	 viewBox="0 0 512 512" style="enable-background:new 0 0 512 512;" xml:space="preserve">
<g>
	<path style="fill:#E57E25;" d="M259.028,47.316L158.897,22.687v192.971l100.122-24.629c8.333-1.792,14.371-9.039,14.636-17.567
		V64.883C273.399,56.355,267.361,49.108,259.028,47.316z"/>
	<path style="fill:#E57E25;" d="M0,64.883v108.579c0.256,8.527,6.294,15.775,14.636,17.567l100.122,24.629V22.687L14.636,47.316
		C6.294,49.108,0.256,56.355,0,64.883z"/>
</g>
<circle style="fill:#2C2F38;" cx="388.414" cy="423.724" r="88.276"/>
<circle style="fill:#A5A5A4;" cx="388.414" cy="423.724" r="52.966"/>
<circle style="fill:#2C2F38;" cx="123.586" cy="423.724" r="88.276"/>
<circle style="fill:#A5A5A4;" cx="123.586" cy="423.724" r="52.966"/>
<path style="fill:#F29C1F;" d="M0,300.138v105.931c0.026,9.737,7.918,17.629,17.655,17.655H35.31
	c0-48.755,39.521-88.276,88.276-88.276s88.276,39.521,88.276,88.276h88.276c0-48.755,39.521-88.276,88.276-88.276
	s88.276,39.521,88.276,88.276h17.655c9.737-0.026,17.629-7.918,17.655-17.655V282.483c-0.018-48.746-39.53-88.258-88.276-88.276
	v-79.448c0.009-19.5-15.793-35.302-35.293-35.31c-0.009,0-0.009,0-0.018,0h-61.793c-9.737,0.026-17.629,7.918-17.655,17.655v185.379
	c-0.026,9.737-7.918,17.629-17.655,17.655H0z M344.276,194.207v-79.448h35.31c4.873,0.018,8.81,3.955,8.828,8.828v70.621H344.276z"
	/>
<path style="fill:#E57E25;" d="M291.31,300.138H0l0,0v-26.483C0,263.901,7.901,256,17.655,256h291.31l0,0v26.483
	C308.966,292.237,301.065,300.138,291.31,300.138z"/>
<g>
	<path style="fill:#F0C419;" d="M105.931,17.655V256h61.793V17.655C167.698,7.918,159.806,0.026,150.069,0h-26.483
		C113.849,0.026,105.958,7.918,105.931,17.655z"/>
	<path style="fill:#F0C419;" d="M459.034,299.043c-0.026,4.917-4.034,8.889-8.96,8.863c-0.715,0-1.43-0.097-2.127-0.274
		c-12.871-1.863-22.837-12.217-24.223-25.15c1.386-12.932,11.352-23.278,24.223-25.15c4.776-1.201,9.613,1.695,10.814,6.462
		c0.177,0.697,0.265,1.412,0.274,2.127L459.034,299.043L459.034,299.043z"/>
</g>
<g>
	<path style="fill:#2980BA;" d="M335.448,203.034v-97.103h44.138c9.746,0.009,17.646,7.91,17.655,17.655v79.448H335.448z"/>
	<path style="fill:#2980BA;" d="M344.276,114.759v79.448h44.138v-70.621c-0.018-4.873-3.955-8.81-8.828-8.828H344.276z"/>
</g>
<g>
	<path style="fill:#D25627;" d="M308.966,256v26.483c-0.026,9.737-7.918,17.629-17.655,17.655h-61.793L273.655,256H308.966z"/>
	<polygon style="fill:#D25627;" points="220.69,256 176.552,300.138 123.586,300.138 167.724,256 	"/>
	<polygon style="fill:#D25627;" points="114.759,256 70.621,300.138 17.655,300.138 61.793,256 	"/>
</g>
<g>
</g>
<g>
</g>
<g>
</g>
<g>
</g>
<g>
</g>
<g>
</g>
<g>
</g>
<g>
</g>
<g>
</g>
<g>
</g>
<g>
</g>
<g>
</g>
<g>
</g>
<g>
</g>
<g>
</g>
</svg>
