<?xml version="1.0" encoding="iso-8859-1"?>
<!-- Generator: Adobe Illustrator 19.0.0, SVG Export Plug-In . SVG Version: 6.00 Build 0)  -->
<svg version="1.1" id="Layer_1" xmlns="http://www.w3.org/2000/svg" xmlns:xlink="http://www.w3.org/1999/xlink" x="0px" y="0px"
	 viewBox="0 0 512 512" style="enable-background:new 0 0 512 512;" xml:space="preserve">
<path style="fill:#C03A2B;" d="M512,313.399c-0.009,28.84-13.603,55.985-36.687,73.269c-1.562,1.156-3.46,1.783-5.411,1.766h-22.254
	c-21.928,35.151-68.202,45.868-103.353,23.94c-9.702-6.047-17.885-14.239-23.94-23.94H182.819
	c-21.901,35.134-68.14,45.868-103.283,23.958c-12.985-8.086-23.181-19.959-29.219-34.022c-21.636,5.473-43.608-7.618-49.09-29.255
	c-0.759-3.019-1.174-6.118-1.227-9.234c-0.009-10.787,4.431-21.107,12.27-28.513c-11.193-40.907,6.991-84.162,44.05-104.783
	c36.873-95.32,144.04-142.698,239.36-105.825c53.681,20.771,94.641,65.333,110.83,120.567
	c51.959-5.967,98.922,31.311,104.889,83.271C511.735,307.528,511.938,310.459,512,313.399z"/>
<g>
	<path style="fill:#90BAE1;" d="M369.258,220.709h-33.81c-8.068-11.502-19.527-20.189-32.777-24.85
		c-4.723-1.359-9.657,1.359-11.017,6.082c-0.221,0.794-0.344,1.607-0.344,2.436v16.34H185.379v-90.571
		c14.151-4.361,28.884-6.568,43.697-6.532C291.566,123.305,347.577,162.103,369.258,220.709z"/>
	<path style="fill:#90BAE1;" d="M167.724,136.67v84.039H88.717l0.706-1.766C103.442,182.133,131.646,152.489,167.724,136.67z"/>
</g>
<circle style="fill:#464F5D;" cx="119.172" cy="348.709" r="75.034"/>
<circle style="fill:#E6E7E8;" cx="119.172" cy="348.709" r="39.724"/>
<circle style="fill:#464F5D;" cx="384" cy="348.709" r="75.034"/>
<circle style="fill:#E6E7E8;" cx="384" cy="348.709" r="39.724"/>
<g>
	<path style="fill:#802F34;" d="M229.517,326.64c-4.873,0-8.828-3.955-8.828-8.828c0-53.522-52.003-61.564-54.219-61.881
		c-4.811-0.777-8.077-5.314-7.3-10.125c0.759-4.687,5.094-7.936,9.799-7.345c39.839,5.146,69.597,39.186,69.367,79.36
		C238.345,322.694,234.39,326.64,229.517,326.64z"/>
	<path style="fill:#802F34;" d="M335.448,220.709v8.828c0,4.873-3.955,8.828-8.828,8.828h-26.483c-4.873,0-8.828-3.955-8.828-8.828
		v-25.167c0.018-4.917,4.017-8.881,8.934-8.863c0.821,0,1.642,0.124,2.436,0.344C315.922,200.52,327.38,209.216,335.448,220.709z"/>
</g>
<g>
</g>
<g>
</g>
<g>
</g>
<g>
</g>
<g>
</g>
<g>
</g>
<g>
</g>
<g>
</g>
<g>
</g>
<g>
</g>
<g>
</g>
<g>
</g>
<g>
</g>
<g>
</g>
<g>
</g>
</svg>
