<svg height="512pt" viewBox="0 -103 512 512" width="512pt" xmlns="http://www.w3.org/2000/svg"><path d="m314.628906 58.363281 20.71875-21.699219 41.992188 40.101563-20.71875 21.695313zm0 0" fill="#ff90c1"/><path d="m130.003906 30.960938h30v56.65625h-30zm0 0" fill="#ff90c1"/><path d="m512 156.800781v98.808594h-512v-98.808594c0-46.421875 37.761719-84.179687 84.179688-84.179687h75.832031v37.070312c0 14.296875 11.628906 25.929688 25.917969 25.929688h140.140624c14.289063 0 25.917969-11.632813 25.917969-25.929688v-37.070312h75.832031c46.417969 0 84.179688 37.757812 84.179688 84.179687zm0 0" fill="#fc356f"/><path d="m277.300781 68.996094 68-68.996094 21.363281 21.058594-67.996093 68.992187zm0 0" fill="#1229b2"/><path d="m512 156.800781v98.808594h-256v-119.988281h70.070312c14.289063 0 25.917969-11.632813 25.917969-25.929688v-37.070312h75.832031c46.417969 0 84.179688 37.757812 84.179688 84.179687zm0 0" fill="#f91047"/><path d="m241 135.609375h30v120h-30zm0 0" fill="#ff90c1"/><path d="m256 135.609375h15v120h-15zm0 0" fill="#fc356f"/><path d="m173.980469 240.609375c0 35.929687-29.230469 65.152344-65.152344 65.152344-35.929687 0-65.148437-29.222657-65.148437-65.152344 0-35.917969 29.21875-65.148437 65.148437-65.148437 35.921875 0 65.152344 29.230468 65.152344 65.148437zm0 0" fill="#1d4ad8"/><path d="m173.980469 240.609375c0 35.929687-29.230469 65.152344-65.152344 65.152344v-130.300781c35.921875 0 65.152344 29.230468 65.152344 65.148437zm0 0" fill="#1229b2"/><path d="m468.320312 240.609375c0 35.929687-29.230468 65.152344-65.148437 65.152344-35.933594 0-65.152344-29.222657-65.152344-65.152344 0-35.917969 29.21875-65.148437 65.152344-65.148437 35.917969 0 65.148437 29.230468 65.148437 65.148437zm0 0" fill="#1d4ad8"/><path d="m468.320312 240.609375c0 35.929687-29.230468 65.152344-65.148437 65.152344v-130.300781c35.917969 0 65.148437 29.230468 65.148437 65.148437zm0 0" fill="#1229b2"/></svg>