<?xml version="1.0" encoding="iso-8859-1"?>
<!-- Generator: Adobe Illustrator 19.0.0, SVG Export Plug-In . SVG Version: 6.00 Build 0)  -->
<svg version="1.1" id="Layer_1" xmlns="http://www.w3.org/2000/svg" xmlns:xlink="http://www.w3.org/1999/xlink" x="0px" y="0px"
	 viewBox="0 0 511.996 511.996" style="enable-background:new 0 0 511.996 511.996;" xml:space="preserve">
<rect x="54.712" y="198.815" style="fill:#D25627;" width="114.374" height="70.384"/>
<path style="fill:#F29C1F;" d="M252.342,251.603h75.135v114.374h-10.382v-0.528c-0.079-33.705-27.459-60.961-61.164-60.882
	c-6.73,0.018-13.417,1.144-19.778,3.343c-24.546,8.402-40.937,31.594-40.647,57.539v0.528h-61.85v-0.528
	c-0.035-33.679-27.362-60.953-61.041-60.926c-6.616,0.009-13.197,1.091-19.461,3.211c-24.775,8.27-41.377,31.594-41.087,57.715
	v0.528H1.95v-87.98c0.026-9.704,7.892-17.57,17.596-17.596h140.768v-58.771c2.358-2.296,4.276-5.006,5.631-8.006l40.647-91.587
	h41.703l79.182,114.374h-75.135c-9.722-16.831-31.242-22.602-48.072-12.88c-16.831,9.722-22.602,31.242-12.88,48.072
	c9.722,16.831,31.242,22.602,48.072,12.88C244.811,261.396,249.254,256.953,252.342,251.603z"/>
<path style="fill:#E57E25;" d="M292.285,84.441c-0.026,9.704-7.892,17.57-17.596,17.596h-68.097l-40.647,91.587
	c-1.355,3-3.273,5.71-5.631,8.006c-3.959,3.792-9.212,5.93-14.693,5.983H63.976c-9.493-0.238-17.834-6.387-20.851-15.397
	l-17.332-46.19L5.998,93.239l-1.32-3.519c-3.546-8.402,0.387-18.089,8.789-21.634c1.628-0.686,3.352-1.109,5.112-1.249h256.11
	C284.375,66.916,292.214,74.746,292.285,84.441z"/>
<path style="fill:#C03A2B;" d="M186.682,234.007c0.009,19.426,15.766,35.157,35.192,35.148s35.157-15.766,35.148-35.192
	c-0.009-19.408-15.74-35.13-35.148-35.148c-19.435-0.009-35.183,15.74-35.192,35.174
	C186.682,233.99,186.682,233.999,186.682,234.007z"/>
<g>
	<path style="fill:#D25627;" d="M133.921,102.037c-0.018,4.856-3.941,8.78-8.798,8.798H12.596L5.997,93.239h119.125
		C129.979,93.248,133.912,97.181,133.921,102.037z"/>
	<path style="fill:#D25627;" d="M113.597,137.229c-0.018,4.857-3.942,8.78-8.798,8.798H25.793l-6.599-17.596h85.605
		C109.656,128.44,113.588,132.373,113.597,137.229z"/>
</g>
<g>
	<path style="fill:#F0C419;" d="M257.066,234.007c-0.009,6.185-1.645,12.256-4.751,17.596h110.327v79.182
		c0.07,9.687,7.909,17.526,17.596,17.596c9.704-0.026,17.57-7.892,17.596-17.596v-96.778c-0.026-9.704-7.892-17.57-17.596-17.596
		H252.315C255.421,221.752,257.057,227.822,257.066,234.007z"/>
	<path style="fill:#F0C419;" d="M221.901,242.805c-2.34,0.018-4.593-0.897-6.247-2.551c-0.801-0.853-1.46-1.83-1.936-2.903
		c-0.818-2.156-0.818-4.531,0-6.686c0.475-1.073,1.126-2.05,1.936-2.903c3.528-3.255,8.965-3.255,12.493,0
		c0.774,0.853,1.399,1.839,1.848,2.903c0.941,2.129,0.941,4.557,0,6.686c-0.449,1.065-1.073,2.05-1.848,2.903
		C226.493,241.908,224.241,242.823,221.901,242.805z"/>
</g>
<path style="fill:#E57E25;" d="M354.988,336.768l24.81,61.586c3.141,7.223,10.346,11.816,18.212,11.613h70.032
	c7.865,0.202,15.071-4.39,18.212-11.613l24.81-61.586c3.141-9.396-1.918-19.558-11.314-22.699c-2.243-0.757-4.619-1.056-6.986-0.88
	h-94.931v17.596c-0.026,9.704-7.892,17.57-17.596,17.596c-9.687-0.07-17.526-7.909-17.596-17.596v-14.693
	C355.287,320.096,352.014,328.929,354.988,336.768z"/>
<g>
	<polygon style="fill:#C03A2B;" points="160.315,254.507 160.315,260.401 142.719,260.401 103.127,207.613 125.123,207.613 	"/>
	<polygon style="fill:#C03A2B;" points="111.926,260.401 89.93,260.401 54.738,213.508 54.738,207.613 72.334,207.613 	"/>
</g>
<path style="fill:#2980BA;" d="M327.477,216.411h-75.135c-4.725-8.253-12.599-14.226-21.819-16.54l0.176-1.056v-52.788
	c0-4.857,3.942-8.798,8.798-8.798h26.482l4.487-3.167L327.477,216.411z"/>
<path style="fill:#2C3E50;" d="M75.774,436.362c-34.998-0.07-64.639-25.822-69.601-60.469c-0.572-3.273-0.827-6.59-0.783-9.915
	c-0.009-28.233,16.839-53.756,42.811-64.833c8.728-3.66,18.106-5.552,27.573-5.552c1.135-0.018,2.261,0.044,3.387,0.194
	c38.799,1.83,68.765,34.77,66.926,73.56C144.32,406.888,113.351,436.397,75.774,436.362z"/>
<circle style="fill:#A5A5A4;" cx="75.774" cy="365.978" r="26.394"/>
<g>
	<path style="fill:#2C2F38;" d="M75.774,445.16c-4.856,0-8.798-3.933-8.798-8.789v-0.009v-8.798c0-4.856,3.942-8.798,8.798-8.798
		s8.798,3.942,8.798,8.798v8.798c0,4.857-3.933,8.798-8.789,8.798C75.783,445.16,75.783,445.16,75.774,445.16z"/>
	<path style="fill:#2C2F38;" d="M75.774,313.19c-4.856,0-8.798-3.933-8.798-8.789v-0.009v-8.798c0-4.856,3.942-8.798,8.798-8.798
		s8.798,3.942,8.798,8.798v8.798c0,4.856-3.933,8.798-8.789,8.798C75.783,313.19,75.783,313.19,75.774,313.19z"/>
	<path style="fill:#2C2F38;" d="M122.316,430.036c-3.924,2.859-9.423,1.988-12.282-1.936c0,0,0-0.009-0.009-0.009l-5.173-7.118
		c-2.842-3.942-1.953-9.44,1.988-12.282c3.924-2.833,9.396-1.962,12.247,1.936l5.173,7.118
		C127.12,421.669,126.257,427.168,122.316,430.036C122.325,430.027,122.325,430.036,122.316,430.036z"/>
	<path style="fill:#2C2F38;" d="M44.753,323.263c-3.924,2.859-9.423,1.988-12.282-1.936c0,0,0-0.009-0.009-0.009l-5.173-7.118
		c-2.859-3.933-1.988-9.431,1.944-12.291c3.933-2.859,9.431-1.988,12.291,1.944l0,0l5.173,7.118
		c2.859,3.924,1.988,9.423-1.936,12.282C44.753,323.263,44.753,323.263,44.753,323.263z"/>
	<path style="fill:#2C2F38;" d="M151.085,390.445c-1.496,4.619-6.458,7.153-11.077,5.648H140l-8.367-2.719
		c-4.628-1.478-7.179-6.431-5.701-11.059c1.478-4.628,6.431-7.179,11.059-5.701c0.026,0.009,0.053,0.018,0.079,0.026l8.367,2.719
		c4.619,1.496,7.153,6.458,5.648,11.077C151.085,390.436,151.085,390.436,151.085,390.445z"/>
	<path style="fill:#2C2F38;" d="M25.573,349.657c-1.496,4.619-6.458,7.153-11.077,5.648h-0.009l-8.367-2.719
		c-4.628-1.478-7.179-6.423-5.701-11.05c1.478-4.628,6.431-7.179,11.059-5.701c0.026,0.009,0.053,0.018,0.079,0.026l8.367,2.719
		C24.544,340.076,27.078,345.038,25.573,349.657C25.573,349.657,25.573,349.657,25.573,349.657z"/>
	<path style="fill:#2C2F38;" d="M151.085,341.502c1.504,4.619-1.021,9.581-5.64,11.085h-0.009l-8.367,2.719
		c-4.61,1.522-9.59-0.985-11.112-5.596c-1.522-4.61,0.985-9.59,5.596-11.112c0.026-0.009,0.053-0.018,0.079-0.026l8.367-2.719
		c4.619-1.504,9.581,1.021,11.085,5.64C151.085,341.502,151.085,341.502,151.085,341.502z"/>
	<path style="fill:#2C2F38;" d="M25.573,382.289c1.504,4.619-1.021,9.581-5.64,11.085h-0.009l-8.367,2.719
		c-4.61,1.522-9.59-0.985-11.112-5.596c-1.522-4.61,0.985-9.59,5.596-11.112c0.026-0.009,0.053-0.018,0.079-0.026l8.367-2.719
		c4.619-1.504,9.581,1.021,11.085,5.64C25.573,382.28,25.573,382.28,25.573,382.289z"/>
	<path style="fill:#2C2F38;" d="M122.316,301.91c3.933,2.851,4.804,8.349,1.953,12.282c0,0,0,0.009-0.009,0.009l-5.173,7.118
		c-2.868,3.924-8.376,4.777-12.3,1.909c-3.906-2.859-4.769-8.323-1.936-12.247l5.173-7.118
		C112.884,299.931,118.383,299.051,122.316,301.91L122.316,301.91z"/>
	<path style="fill:#2C2F38;" d="M44.753,408.683c3.933,2.851,4.804,8.349,1.953,12.282c0,0,0,0.009-0.009,0.009l-5.173,7.109
		c-2.903,3.898-8.42,4.698-12.308,1.795c-3.827-2.851-4.681-8.244-1.918-12.141l5.173-7.118
		C35.312,406.695,40.811,405.824,44.753,408.683C44.744,408.674,44.744,408.674,44.753,408.683z"/>
</g>
<path style="fill:#2C3E50;" d="M260.533,436.362c-34.998-0.07-64.639-25.822-69.601-60.469c-0.572-3.273-0.827-6.59-0.783-9.915
	c-0.009-28.233,16.839-53.756,42.811-64.833c8.728-3.66,18.106-5.552,27.573-5.552c1.135-0.018,2.261,0.044,3.387,0.194
	c38.799,1.83,68.765,34.77,66.926,73.56C329.078,406.888,298.109,436.397,260.533,436.362z"/>
<circle style="fill:#A5A5A4;" cx="260.533" cy="365.978" r="26.394"/>
<g>
	<path style="fill:#2C2F38;" d="M260.533,445.16c-4.857,0-8.798-3.933-8.798-8.789v-0.009v-8.798c0-4.856,3.942-8.798,8.798-8.798
		s8.798,3.942,8.798,8.798v8.798c0,4.857-3.933,8.798-8.789,8.798C260.541,445.16,260.541,445.16,260.533,445.16z"/>
	<path style="fill:#2C2F38;" d="M260.533,313.19c-4.857,0-8.798-3.933-8.798-8.789v-0.009v-8.798c0-4.856,3.942-8.798,8.798-8.798
		s8.798,3.942,8.798,8.798v8.798c0,4.856-3.933,8.798-8.789,8.798C260.541,313.19,260.541,313.19,260.533,313.19z"/>
	<path style="fill:#2C2F38;" d="M307.074,430.036c-3.924,2.859-9.423,1.988-12.282-1.936c0,0,0-0.009-0.009-0.009l-5.173-7.118
		c-2.842-3.942-1.953-9.44,1.988-12.282c3.924-2.833,9.396-1.962,12.247,1.936l5.173,7.118
		C311.878,421.669,311.016,427.168,307.074,430.036C307.083,430.027,307.083,430.036,307.074,430.036z"/>
	<path style="fill:#2C2F38;" d="M229.511,323.263c-3.924,2.859-9.423,1.988-12.282-1.936c0,0,0-0.009-0.009-0.009l-5.173-7.118
		c-2.842-3.942-1.953-9.44,1.988-12.282c3.924-2.833,9.396-1.962,12.247,1.936l5.173,7.118
		C234.315,314.905,233.444,320.404,229.511,323.263L229.511,323.263z"/>
	<path style="fill:#2C2F38;" d="M335.844,390.445c-1.496,4.619-6.458,7.153-11.077,5.648h-0.009l-8.367-2.719
		c-4.628-1.478-7.179-6.431-5.701-11.059c1.478-4.628,6.431-7.179,11.059-5.701c0.026,0.009,0.053,0.018,0.079,0.026l8.367,2.719
		c4.619,1.496,7.153,6.458,5.648,11.077C335.844,390.436,335.844,390.436,335.844,390.445z"/>
	<path style="fill:#2C2F38;" d="M210.331,349.657c-1.496,4.619-6.458,7.153-11.077,5.648h-0.009l-8.367-2.719
		c-4.628-1.478-7.179-6.431-5.701-11.059c1.478-4.628,6.431-7.179,11.059-5.701c0.026,0.009,0.053,0.018,0.079,0.026l8.367,2.719
		c4.619,1.496,7.153,6.458,5.648,11.077C210.331,349.657,210.331,349.657,210.331,349.657z"/>
	<path style="fill:#2C2F38;" d="M335.844,341.502c1.504,4.619-1.021,9.581-5.64,11.085h-0.009l-8.367,2.719
		c-4.61,1.522-9.59-0.985-11.112-5.596c-1.522-4.61,0.985-9.59,5.596-11.112c0.026-0.009,0.053-0.018,0.079-0.026l8.367-2.719
		c4.619-1.504,9.581,1.021,11.085,5.64C335.844,341.502,335.844,341.502,335.844,341.502z"/>
	<path style="fill:#2C2F38;" d="M210.331,382.289c1.504,4.619-1.021,9.581-5.64,11.085h-0.009l-8.367,2.719
		c-4.61,1.522-9.59-0.985-11.112-5.596c-1.522-4.61,0.985-9.59,5.596-11.112c0.026-0.009,0.053-0.018,0.079-0.026l8.367-2.719
		c4.619-1.504,9.581,1.021,11.085,5.64C210.331,382.28,210.331,382.28,210.331,382.289z"/>
	<path style="fill:#2C2F38;" d="M307.074,301.91c3.933,2.851,4.804,8.349,1.953,12.282c0,0,0,0.009-0.009,0.009l-5.173,7.118
		c-2.868,3.924-8.376,4.777-12.3,1.909c-3.906-2.859-4.769-8.323-1.936-12.247l5.173-7.118
		C297.643,299.931,303.141,299.051,307.074,301.91L307.074,301.91z"/>
	<path style="fill:#2C2F38;" d="M229.511,408.683c3.933,2.851,4.804,8.349,1.953,12.282c0,0,0,0.009-0.009,0.009l-5.173,7.118
		c-2.868,3.924-8.376,4.777-12.3,1.909c-3.906-2.859-4.769-8.323-1.936-12.247l5.173-7.118
		C220.071,406.695,225.569,405.824,229.511,408.683C229.502,408.674,229.502,408.674,229.511,408.683z"/>
</g>
<g>
</g>
<g>
</g>
<g>
</g>
<g>
</g>
<g>
</g>
<g>
</g>
<g>
</g>
<g>
</g>
<g>
</g>
<g>
</g>
<g>
</g>
<g>
</g>
<g>
</g>
<g>
</g>
<g>
</g>
</svg>
