<?xml version="1.0" encoding="iso-8859-1"?>
<!-- Generator: Adobe Illustrator 19.0.0, SVG Export Plug-In . SVG Version: 6.00 Build 0)  -->
<svg version="1.1" id="Layer_1" xmlns="http://www.w3.org/2000/svg" xmlns:xlink="http://www.w3.org/1999/xlink" x="0px" y="0px"
	 viewBox="0 0 512 512" style="enable-background:new 0 0 512 512;" xml:space="preserve">
<path style="fill:#2C2F38;" d="M476.07,350.505L476.07,350.505c19.842,0,35.93,16.088,35.93,35.93v26.947
	c0,4.958-4.024,8.982-8.982,8.982H476.07l0,0V350.505L476.07,350.505z"/>
<path style="fill:#E64C3C;" d="M323.368,359.667l-0.153-0.18V206.786h-89.672v215.579h44.984c-0.153-1.527-0.153-2.964-0.153-4.491
	C278.384,394.519,295.864,373.59,323.368,359.667z"/>
<path style="fill:#F0C419;" d="M362.532,116.961h-6.467c-8.56,0-15.935,6.045-17.615,14.444l-6.099,30.468h53.895l-6.09-30.468
	C378.476,122.997,371.101,116.952,362.532,116.961z"/>
<g>
	<path style="fill:#59474E;" d="M75.911,72.381L434.176,9.208c14.659-2.587,28.636,7.204,31.214,21.854l1.563,8.848
		c0.862,4.886-2.398,9.548-7.285,10.402L83.716,116.602c-12.216,2.156-23.857-6-26.013-18.216l0,0
		C55.539,86.187,63.695,74.537,75.911,72.381z"/>
	<path style="fill:#59474E;" d="M152.702,134.926v26.947l0,0H44.912l0,0v-26.947c0-14.884,12.063-26.947,26.947-26.947h53.895
		C140.638,107.979,152.702,120.042,152.702,134.926z"/>
</g>
<g>
	<path style="fill:#C03A2B;" d="M251.509,170.856v251.509h-36.02c0.09-1.527,0.09-2.964,0.09-4.491
		c0.027-10.851-2.3-21.576-6.827-31.439c-17.318-38.4-62.482-55.485-100.882-38.166c-16.95,7.644-30.522,21.217-38.166,38.166
		c-4.518,9.863-6.845,20.588-6.827,31.439c0,1.527,0,2.964,0.09,4.491H8.982c-4.958-0.018-8.964-4.024-8.982-8.982v-35.93
		c0.018-4.958,4.024-8.965,8.982-8.982s8.964-4.024,8.982-8.982V215.768c-0.027-4.931,3.952-8.956,8.884-8.982h0.009
		c4.985,0.027,9.045-3.997,9.072-8.982v-26.947c0.027-9.908,8.057-17.938,17.965-17.965h179.649
		C243.452,152.918,251.482,160.939,251.509,170.856z"/>
	<path style="fill:#C03A2B;" d="M485.053,314.575v107.789h-53.985c0-0.719,0.09-1.437,0.09-2.156
		c1.473-42.047-31.421-77.321-73.468-78.794c-19.07-0.665-37.699,5.848-52.197,18.252l-0.09-0.18V170.856
		c0.027-9.908,8.057-17.938,17.965-17.965h75.093c8.569,0.009,15.935,6.063,17.606,14.462l15.091,75.363
		C431.158,242.716,485.053,278.645,485.053,314.575z"/>
</g>
<path style="fill:#2FA8CC;" d="M350.316,188.821h28.322c4.392,0,8.138,3.171,8.857,7.509l5.991,35.93
	c0.817,4.895-2.488,9.521-7.384,10.339c-0.485,0.081-0.979,0.126-1.473,0.126h-34.313c-4.958,0-8.982-4.024-8.982-8.982v-35.93
	C341.333,192.836,345.357,188.821,350.316,188.821z"/>
<g>
	<rect x="251.509" y="242.707" style="fill:#802D40;" width="53.895" height="35.93"/>
	<rect x="251.509" y="314.566" style="fill:#802D40;" width="53.895" height="35.93"/>
	<path style="fill:#802D40;" d="M215.579,179.838c-4.958,0-8.982,4.024-8.982,8.982h-17.965c0-4.958-4.024-8.982-8.982-8.982
		s-8.982,4.024-8.982,8.982h-17.965c0-4.958-4.024-8.982-8.982-8.982s-8.982,4.024-8.982,8.982h-17.965
		c0-4.958-4.024-8.982-8.982-8.982s-8.982,4.024-8.982,8.982H80.842c0-4.958-4.024-8.982-8.982-8.982s-8.982,4.024-8.982,8.982
		v53.895c0,4.958,4.024,8.982,8.982,8.982s8.982-4.024,8.982-8.982h17.965c0,4.958,4.024,8.982,8.982,8.982s8.982-4.024,8.982-8.982
		h17.965c0,4.958,4.024,8.982,8.982,8.982s8.982-4.024,8.982-8.982h17.965c0,4.958,4.024,8.982,8.982,8.982s8.982-4.024,8.982-8.982
		h17.965c0,4.958,4.024,8.982,8.982,8.982s8.982-4.024,8.982-8.982v-53.895C224.561,183.854,220.537,179.838,215.579,179.838z
		 M80.842,224.751v-17.965h17.965v17.965H80.842z M116.772,224.751v-17.965h17.965v17.965H116.772z M152.702,224.751v-17.965h17.965
		v17.965H152.702z M188.632,224.751v-17.965h17.965v17.965H188.632z"/>
	<path style="fill:#802D40;" d="M215.579,269.663H71.86c-4.958,0-8.982,4.024-8.982,8.982v35.93c0,4.958,4.024,8.982,8.982,8.982
		s8.982-4.024,8.982-8.982v-26.947h17.965v17.965c0,4.958,4.024,8.982,8.982,8.982s8.982-4.024,8.982-8.982v-17.965h17.965v17.965
		c0,4.958,4.024,8.982,8.982,8.982s8.982-4.024,8.982-8.982v-17.965h17.965v17.965c0,4.958,4.024,8.982,8.982,8.982
		s8.982-4.024,8.982-8.982v-17.965h17.965v26.947c0,4.958,4.024,8.982,8.982,8.982s8.982-4.024,8.982-8.982v-35.93
		C224.561,273.678,220.537,269.663,215.579,269.663z"/>
</g>
<path style="fill:#2C2F38;" d="M139.228,503.207c-45.182-0.018-82.54-35.22-85.235-80.321c-0.099-1.707-0.099-3.315-0.099-5.012
	c-0.027-12.144,2.578-24.145,7.644-35.175c19.384-42.909,69.884-61.979,112.793-42.604c18.926,8.551,34.079,23.714,42.622,42.64
	c5.066,11.012,7.671,23.004,7.617,35.13c0,1.698,0,3.306-0.099,5.012C221.768,467.978,184.41,503.189,139.228,503.207z"/>
<path style="fill:#A5A5A4;" d="M139.228,458.295c-21.405,0.009-39.11-16.662-40.394-38.023c-0.045-0.799-0.027-1.581-0.027-2.398
	c-0.018-5.686,1.195-11.309,3.566-16.483c9.063-20.354,32.903-29.516,53.257-20.453c9.045,4.024,16.294,11.237,20.372,20.264
	c2.425,5.219,3.674,10.914,3.647,16.671c0,0.826,0.018,1.608-0.027,2.434C178.32,441.65,160.615,458.295,139.228,458.295z"/>
<path style="fill:#2C2F38;" d="M354.807,503.207c-45.182-0.018-82.54-35.22-85.235-80.321c-0.099-1.707-0.099-3.315-0.099-5.012
	c0-47.131,38.202-85.333,85.333-85.333s85.333,38.202,85.333,85.333c0,1.698,0,3.306-0.099,5.012
	C437.347,467.978,399.989,503.189,354.807,503.207z"/>
<path style="fill:#A5A5A4;" d="M354.807,458.295c-21.405,0.009-39.11-16.662-40.394-38.023c-0.045-0.799-0.027-1.581-0.027-2.398
	c0-22.321,18.1-40.421,40.421-40.421c22.321,0,40.421,18.1,40.421,40.421c0,0.826,0.018,1.608-0.027,2.434
	C393.899,441.65,376.194,458.295,354.807,458.295z"/>
<g>
</g>
<g>
</g>
<g>
</g>
<g>
</g>
<g>
</g>
<g>
</g>
<g>
</g>
<g>
</g>
<g>
</g>
<g>
</g>
<g>
</g>
<g>
</g>
<g>
</g>
<g>
</g>
<g>
</g>
</svg>
