<?xml version="1.0" encoding="iso-8859-1"?>
<!-- Generator: Adobe Illustrator 19.0.0, SVG Export Plug-In . SVG Version: 6.00 Build 0)  -->
<svg version="1.1" id="Layer_1" xmlns="http://www.w3.org/2000/svg" xmlns:xlink="http://www.w3.org/1999/xlink" x="0px" y="0px"
	 viewBox="0 0 512 512" style="enable-background:new 0 0 512 512;" xml:space="preserve">
<path style="fill:#FFDB80;" d="M0,244.87V44.522C0,19.933,19.933,0,44.522,0h166.957C236.066,0,256,19.933,256,44.522V244.87H0z"/>
<path style="fill:#FFEB99;" d="M256,44.522V244.87H128V0h83.478C236.066,0,256,19.933,256,44.522z"/>
<path style="fill:#D15D39;" d="M0,77.913V44.522C0,19.933,19.933,0,44.522,0h166.957C236.066,0,256,19.933,256,44.522v33.391H0z"/>
<path style="fill:#967A56;" d="M367.304,233.739V122.435c-12.295,0-22.261-9.966-22.261-22.261l0,0
	c0-12.295,9.966-22.261,22.261-22.261h66.783c12.295,0,22.261,9.966,22.261,22.261l0,0c0,12.295-9.966,22.261-22.261,22.261v111.304
	H367.304z"/>
<path style="fill:#B79969;" d="M47.766,456.348h-3.245C19.933,456.348,0,436.414,0,411.826V211.478h467.478
	C492.066,211.478,512,231.412,512,256v155.826c0,24.588-19.933,44.522-44.522,44.522H47.766z"/>
<path style="fill:#4C443B;" d="M512,300.522v111.304c0,24.588-19.933,44.522-44.522,44.522H47.766h-3.245
	C19.933,456.348,0,436.414,0,411.826V300.522H512z"/>
<path style="fill:#7A9390;" d="M44.522,422.957c0-49.178,39.866-89.043,89.043-89.043s89.043,39.866,89.043,89.043
	S182.743,512,133.565,512S44.522,472.134,44.522,422.957z M411.826,512c30.736,0,55.652-24.917,55.652-55.652
	s-24.917-55.652-55.652-55.652s-55.652,24.917-55.652,55.652S381.09,512,411.826,512z"/>
<path style="fill:#EAB250;" d="M100.174,422.957c0-18.442,14.949-33.391,33.391-33.391s33.391,14.949,33.391,33.391
	s-14.949,33.391-33.391,33.391S100.174,441.399,100.174,422.957z M411.826,478.609c12.295,0,22.261-9.966,22.261-22.261
	s-9.966-22.261-22.261-22.261c-12.295,0-22.261,9.966-22.261,22.261S399.531,478.609,411.826,478.609z"/>
<g>
</g>
<g>
</g>
<g>
</g>
<g>
</g>
<g>
</g>
<g>
</g>
<g>
</g>
<g>
</g>
<g>
</g>
<g>
</g>
<g>
</g>
<g>
</g>
<g>
</g>
<g>
</g>
<g>
</g>
</svg>
