<svg height="512pt" viewBox="0 -87 512 512" width="512pt" xmlns="http://www.w3.org/2000/svg"><path d="m200.371094 58.222656h-102.855469c-4.269531 0-8.09375 2.632813-9.621094 6.625l-24.839843 64.984375c-1.316407 3.4375-4.363282 5.914063-7.996094 6.492188l-23.207032 3.714843c-4.996093.800782-8.671874 5.113282-8.671874 10.175782v127.113281h187.492187v-208.800781c0-5.691406-4.613281-10.304688-10.300781-10.304688zm0 0" fill="#ffd659"/><path d="m200.371094 58.222656h-30.90625c5.691406 0 10.300781 4.613282 10.300781 10.304688v208.800781h30.90625v-208.800781c0-5.691406-4.613281-10.304688-10.300781-10.304688zm0 0" fill="#ffbd54"/><path d="m179.765625 132.574219v-39.316407c0-2.277343-1.84375-4.121093-4.121094-4.121093h-61.113281c-1.707031 0-3.238281 1.054687-3.847656 2.648437l-15.027344 39.316406c-1.035156 2.699219.960938 5.597657 3.847656 5.597657h76.140625c2.277344 0 4.121094-1.847657 4.121094-4.125zm0 0" fill="#71f6fc"/><path d="m175.644531 89.136719h-30.90625c2.277344 0 4.121094 1.84375 4.121094 4.121093v39.316407c0 2.277343-1.84375 4.125-4.121094 4.125h30.90625c2.277344 0 4.121094-1.847657 4.121094-4.125v-39.316407c0-2.277343-1.84375-4.121093-4.121094-4.121093zm0 0" fill="#3be3eb"/><path d="m153.5 165.105469h-35.027344c-4.140625 0-7.5 3.355469-7.5 7.5s3.359375 7.5 7.5 7.5h35.027344c4.140625 0 7.5-3.355469 7.5-7.5s-3.355469-7.5-7.5-7.5zm0 0" fill="#6d6670"/><path d="m183.265625 81.636719h-68.730469c-4.785156 0-9.148437 3.003906-10.855468 7.472656l-14.914063 39.011719c-1.058594 2.773437-1.1875 5.863281-.109375 8.632812 1.785156 4.578125 6.128906 7.441406 10.851562 7.441406h83.757813c2.210937 0 4-1.789062 4-4v-54.558593c0-2.210938-1.789063-4-4-4zm-13 47.558593h-62.945313c-1.402343 0-2.371093-1.402343-1.871093-2.714843l10.917969-28.558594c.296874-.773437 1.039062-1.285156 1.871093-1.285156h52.027344c1.105469 0 2 .894531 2 2v28.558593c0 1.105469-.894531 2-2 2zm0 0" fill="#ffbd54"/><path d="m210.671875 207h274.03125v70.328125h-274.03125zm0 0" fill="#ffd659"/><path d="m453.796875 207h30.90625v70.328125h-30.90625zm0 0" fill="#ffbd54"/><path d="m210.671875 15.972656v207.128906h274.03125l11.328125-117.015624-217.914062-88.550782zm0 0" fill="#5aa778"/><path d="m466.296875 94.003906-12.5 129.097656h30.90625l11.328125-117.015624zm0 0" fill="#509e6e"/><path d="m496.546875 292.140625h-481.09375c-8.535156 0-15.453125-6.917969-15.453125-15.453125v-.003906c0-8.539063 6.917969-15.457032 15.453125-15.457032h481.09375c8.535156 0 15.453125 6.917969 15.453125 15.457032v.003906c0 8.535156-6.917969 15.453125-15.453125 15.453125zm0 0" fill="#f54558"/><path d="m496.546875 261.226562h-30.90625c8.535156 0 15.453125 6.921876 15.453125 15.457032 0 8.539062-6.917969 15.457031-15.453125 15.457031h30.90625c8.535156 0 15.453125-6.917969 15.453125-15.457031 0-8.535156-6.917969-15.457032-15.453125-15.457032zm0 0" fill="#d43b4c"/><path d="m160.902344 276c0 34.242188-27.757813 62-62 62-34.242188 0-62-27.757812-62-62s27.757812-62 62-62c34.242187 0 62 27.757812 62 62zm0 0" fill="#49404d"/><path d="m123.058594 276c0 13.339844-10.816406 24.15625-24.15625 24.15625-13.34375 0-24.15625-10.816406-24.15625-24.15625s10.8125-24.15625 24.15625-24.15625c13.339844 0 24.15625 10.816406 24.15625 24.15625zm0 0" fill="#e1eaf0"/><path d="m461.714844 276c0 34.242188-27.757813 62-62 62-34.242188 0-62-27.757812-62-62s27.757812-62 62-62c34.242187 0 62 27.757812 62 62zm0 0" fill="#49404d"/><path d="m423.871094 276c0 13.339844-10.816406 24.15625-24.15625 24.15625-13.34375 0-24.15625-10.816406-24.15625-24.15625s10.8125-24.15625 24.15625-24.15625c13.339844 0 24.15625 10.816406 24.15625 24.15625zm0 0" fill="#e1eaf0"/><path d="m495.972656 121.597656c-1.945312 0-3.917968-.367187-5.828125-1.144531l-215.988281-87.894531-64.824219-1.503906c-8.558593-.199219-15.335937-7.3125-15.136719-15.886719.199219-8.574219 7.304688-15.339844 15.855469-15.16406275l67.667969 1.57031275c1.878906.042969 3.734375.429687 5.472656 1.136719l218.621094 88.964843c7.933594 3.226563 11.75 12.285157 8.527344 20.234375-2.445313 6.03125-8.246094 9.6875-14.367188 9.6875zm0 0" fill="#49404d"/><g fill="#4b9467"><path d="m250.226562 53.984375c-4.140624 0-7.5 3.355469-7.5 7.5v123.660156c0 4.140625 3.359376 7.5 7.5 7.5 4.140626 0 7.5-3.359375 7.5-7.5v-123.660156c0-4.140625-3.359374-7.5-7.5-7.5zm0 0"/><path d="m288.960938 64.742188c-4.140626 0-7.5 3.359374-7.5 7.5v112.902343c0 4.140625 3.359374 7.5 7.5 7.5 4.140624 0 7.5-3.359375 7.5-7.5v-112.902343c0-4.140626-3.359376-7.5-7.5-7.5zm0 0"/><path d="m327.695312 77.113281c-4.140624 0-7.5 3.355469-7.5 7.5v100.53125c0 4.140625 3.359376 7.5 7.5 7.5 4.144532 0 7.5-3.359375 7.5-7.5v-100.53125c0-4.144531-3.355468-7.5-7.5-7.5zm0 0"/><path d="m366.429688 95.636719c-4.140626 0-7.5 3.359375-7.5 7.5v82.007812c0 4.144531 3.359374 7.5 7.5 7.5 4.144531 0 7.5-3.355469 7.5-7.5v-82.007812c0-4.140625-3.355469-7.5-7.5-7.5zm0 0"/><path d="m405.164062 112.398438c-4.140624 0-7.5 3.355468-7.5 7.5v65.246093c0 4.140625 3.359376 7.5 7.5 7.5 4.144532 0 7.5-3.359375 7.5-7.5v-65.246093c0-4.140626-3.355468-7.5-7.5-7.5zm0 0"/><path d="m443.898438 127.378906c-4.140626 0-7.5 3.355469-7.5 7.5v50.265625c0 4.144531 3.359374 7.5 7.5 7.5 4.144531 0 7.5-3.355469 7.5-7.5v-50.265625c0-4.144531-3.355469-7.5-7.5-7.5zm0 0"/></g></svg>